<?xml version="1.0" encoding="UTF-8"?>
<svg xmlns="http://www.w3.org/2000/svg" width="500" height="55" viewBox="0 0 500 55" fill="none">
  <mask id="mask0_139_1571" style="mask-type:luminance" maskUnits="userSpaceOnUse" x="0" y="0" width="500" height="55">
    <path d="M499.99 0H0V54.0614H499.99V0Z" fill="white"></path>
  </mask>
  <g mask="url(#mask0_139_1571)">
    <path d="M186.559 26.8747C186.559 28.958 185.83 30.6246 184.371 32.0829C182.913 33.5412 181.142 34.2704 179.059 34.2704C176.976 34.2704 175.309 33.5412 173.955 32.0829C172.497 30.6246 171.872 28.958 171.872 26.8747C171.872 24.7914 172.601 23.1248 173.955 21.6665C175.413 20.2082 177.08 19.479 179.059 19.479C181.142 19.479 182.913 20.2082 184.371 21.6665C185.83 23.1248 186.559 24.8956 186.559 26.8747Z" fill="black"></path>
    <path d="M179.163 0.416504C186.455 0.416504 192.496 2.91645 197.496 8.02051C198.746 9.37465 199.267 11.0413 199.163 12.8121C199.058 14.7912 198.329 16.2495 197.079 17.3953C195.725 18.6453 194.163 19.3744 192.079 19.3744C189.996 19.4786 188.434 18.7495 187.08 17.3953C184.892 15.312 182.08 14.3745 179.059 14.3745C177.392 14.3745 175.83 14.687 174.371 15.4162C172.913 16.1453 171.559 16.9787 170.517 18.1245C169.476 19.1661 168.434 20.5203 167.809 21.9786C167.184 23.4369 166.872 24.8952 166.872 26.5618C166.872 28.2284 167.184 29.7909 167.809 31.2492C168.434 32.7075 169.372 34.0616 170.517 35.1033C171.767 36.1449 172.913 37.1866 174.371 37.8116C175.83 38.4365 177.392 38.749 178.955 38.6449C182.08 38.6449 184.788 37.7074 186.975 35.7283C188.329 34.27 189.892 33.5408 191.975 33.5408C194.059 33.5408 195.621 34.27 196.975 35.7283C197.6 36.3533 198.225 36.9782 198.538 37.8116C198.85 38.6449 199.163 39.374 199.163 40.3115C199.163 41.1448 199.058 41.9781 198.85 42.8114C198.642 43.6448 198.121 44.3739 197.496 44.9989C194.996 47.4989 192.184 49.478 189.163 50.728C186.142 52.0821 182.809 52.7071 179.163 52.7071C175.517 52.7071 172.184 51.9779 169.059 50.6238C165.934 49.1655 163.122 47.3947 160.726 44.8947C158.33 42.499 156.455 39.6865 154.997 36.5616C153.539 33.4366 152.914 29.9992 152.914 26.5618C152.914 23.1244 153.643 19.7911 154.997 16.6662C156.455 13.5412 158.226 10.7288 160.726 8.33301C163.122 5.93722 165.934 4.06226 169.059 2.60396C172.288 1.14566 175.621 0.416504 179.163 0.416504Z" fill="#1AA0E1"></path>
    <path d="M232.808 1.354C236.349 1.354 239.683 2.08316 242.808 3.43729C245.932 4.79143 248.745 6.66639 251.141 9.16634C253.536 11.5621 255.411 14.3746 256.87 17.4995C258.328 20.6244 258.953 24.166 258.953 27.8118C258.953 31.4575 258.224 34.7908 256.87 38.0199C255.516 41.1448 253.641 43.9573 251.349 46.2489C249.057 48.6447 246.245 50.5196 243.12 51.7696C239.995 53.1238 236.453 53.8529 232.808 53.8529C229.162 53.8529 225.829 53.2279 222.704 51.8738C219.579 50.5196 216.766 48.7488 214.371 46.4572C211.975 44.1656 210.1 41.3532 208.85 38.2282C207.496 35.1033 206.767 31.5617 206.767 27.8118C206.767 24.0619 207.496 20.8328 208.85 17.6037C210.204 14.4787 211.975 11.6663 214.371 9.37467C216.662 7.08305 219.475 5.10393 222.704 3.85395C225.725 2.39565 229.162 1.6665 232.808 1.354ZM232.808 15.5204C231.141 15.5204 229.579 15.8329 228.224 16.4579C226.766 17.0828 225.412 17.9162 224.37 18.9578C223.329 19.9994 222.287 21.3536 221.662 22.8119C221.037 24.2702 220.725 25.8327 220.725 27.6035C220.725 29.2701 221.037 30.8326 221.662 32.2909C222.287 33.7492 223.225 35.1033 224.37 36.1449C225.412 37.1866 226.766 38.2282 228.224 38.8532C229.683 39.4782 231.245 39.7907 232.808 39.7907C234.474 39.7907 236.037 39.4782 237.495 38.8532C238.953 38.2282 240.308 37.2908 241.349 36.1449C242.391 35.1033 243.328 33.7492 243.849 32.2909C244.474 30.8326 244.787 29.2701 244.787 27.6035C244.682 24.3744 243.433 21.4578 241.141 19.1661C239.162 16.9787 236.245 15.8329 232.808 15.5204Z" fill="#1AA0E1"></path>
    <path d="M292.911 0.208496C296.244 0.208496 299.681 0.833483 302.806 2.18762C305.931 3.4376 308.744 5.20839 311.035 7.39585C313.327 9.68747 315.306 12.3957 316.764 15.4165C318.223 18.4373 318.952 21.8747 318.952 25.3121V45.3117C318.952 47.2908 318.223 48.9575 316.869 50.4158C315.514 51.8741 313.848 52.6032 311.764 52.6032C309.681 52.6032 308.015 51.9782 306.556 50.6241C305.098 49.27 304.369 47.7075 304.369 45.6242V26.1455C304.369 24.583 304.16 23.1247 303.536 21.6664C302.911 20.2081 302.077 18.9581 301.14 18.0206C300.098 16.979 298.848 16.2498 297.39 15.6248C295.932 14.9999 294.473 14.6874 292.807 14.6874C291.244 14.6874 289.89 14.8957 288.432 15.5207C287.078 16.1457 285.932 16.8748 284.786 17.8123C283.744 18.7498 282.807 20.1039 282.286 21.5622C281.661 22.9164 281.453 24.3747 281.453 25.833V45.4159C281.453 47.395 280.724 49.0616 279.265 50.4158C277.807 51.8741 276.14 52.6032 274.161 52.6032C272.182 52.6032 270.515 51.9782 269.057 50.6241C267.599 49.27 266.87 47.7075 266.87 45.8325V26.3538C266.974 22.708 267.599 19.4789 268.953 16.354C270.307 13.2291 272.078 10.4166 274.369 8.125C276.661 5.83338 279.474 3.85425 282.598 2.60428C285.828 0.937647 289.265 0.208496 292.911 0.208496Z" fill="#1AA0E1"></path>
    <path d="M353.951 0C357.492 0 360.826 0.624987 363.951 1.97913C367.18 3.33326 369.992 4.9999 372.388 7.29151C374.784 9.58313 376.763 12.3956 378.221 15.5205C379.679 18.6454 380.409 22.0829 380.409 25.7286V45.4157C380.409 47.3948 379.679 49.0615 378.325 50.5198C376.971 51.9781 375.304 52.7072 373.221 52.7072C371.138 52.7072 369.471 52.0822 368.013 50.7281C366.555 49.374 365.826 47.8115 365.826 45.7282V26.3536C365.826 24.687 365.513 23.1245 364.888 21.6662C364.263 20.2079 363.43 18.8538 362.18 17.8121C361.138 16.7705 359.784 15.833 358.326 15.1039C356.867 14.4789 355.201 14.1664 353.534 14.1664C351.972 14.1664 350.409 14.4789 348.951 15.1039C347.493 15.7288 346.243 16.5622 345.201 17.4996C343.847 18.7496 342.909 20.3121 342.18 22.187C341.764 23.2287 341.555 24.4787 341.555 25.7286V45.3116C341.555 47.2907 340.826 48.9573 339.368 50.3114C337.909 51.7698 336.243 52.4989 334.264 52.4989C332.285 52.4989 330.618 51.8739 329.16 50.5198C327.701 49.1656 326.972 47.6032 326.972 45.7282V26.6661C327.076 23.0204 327.701 19.5829 329.16 16.3538C330.514 13.1247 332.389 10.3123 334.68 7.9165C337.076 5.52072 339.889 3.54159 343.013 2.18745C346.659 0.729151 350.201 0 353.951 0Z" fill="#1AA0E1"></path>
    <path d="M413.741 0.3125C417.283 0.3125 420.512 1.04165 423.637 2.49995C426.762 3.95826 429.574 5.93738 431.97 8.33317C434.366 10.7289 436.345 13.5414 437.803 16.6663C439.261 19.7913 439.991 23.1245 439.991 26.562C439.991 28.5411 439.261 30.1035 437.907 31.5618C436.449 33.0202 434.782 33.7493 432.699 33.6451H403.95C406.345 37.0826 409.679 38.7492 413.741 38.7492C414.991 38.7492 415.929 38.645 416.658 38.4367C417.491 38.2284 418.116 37.9159 418.741 37.7076C419.366 37.4992 419.991 37.1867 420.512 36.9784C421.137 36.7701 421.866 36.6659 422.595 36.6659C424.158 36.7701 425.408 37.1867 426.553 38.02C427.595 38.8534 428.533 39.7908 429.053 41.0408C429.574 42.2908 429.782 43.4366 429.574 44.8949C429.366 46.249 428.741 47.6032 427.595 48.6448C425.616 50.2073 423.533 51.3531 421.033 51.8739C418.637 52.4989 416.033 52.8114 413.429 52.9156C409.887 53.0197 406.658 52.3947 403.533 50.9364C400.408 49.4781 397.596 47.7073 395.2 45.2074C392.804 42.8116 390.825 39.9992 389.575 36.7701C388.117 33.541 387.492 30.1035 387.492 26.7703C387.492 23.437 388.221 20.1038 389.575 16.9788C391.033 13.8539 392.804 11.0414 395.2 8.64566C397.596 6.24988 400.408 4.27075 403.533 2.81245C406.866 1.04165 410.2 0.3125 413.741 0.3125ZM423.637 19.0621C422.387 17.4996 421.033 16.2497 419.262 15.4164C417.595 14.583 415.72 14.0622 413.741 14.0622C411.658 14.0622 409.783 14.583 408.22 15.4164C406.658 16.2497 405.2 17.4996 403.95 19.0621H423.637Z" fill="#1AA0E1"></path>
    <path d="M488.115 2.49979C489.469 1.14566 491.136 0.416504 492.907 0.416504C494.677 0.416504 496.448 1.14566 497.906 2.49979C499.261 3.85393 499.886 5.4164 499.886 7.29136C499.886 9.27049 499.261 10.9371 497.906 12.2913L483.844 26.4576L497.906 40.624C499.261 41.9781 499.886 43.5406 499.99 45.6239C500.094 47.603 499.365 49.3738 497.906 50.8321C496.552 52.1863 494.99 52.8112 492.907 52.8112C490.823 52.8112 489.157 52.0821 487.802 50.5196L473.74 36.7699L459.678 50.9363C458.324 52.1863 456.761 52.7071 454.886 52.9154C452.907 53.0196 451.241 52.3946 449.782 50.9363C448.428 49.5821 447.699 48.0197 447.699 46.1447C447.595 44.1656 448.22 42.499 449.678 41.0407L464.053 26.666L449.678 12.2913C448.324 10.9371 447.699 9.37465 447.907 7.60385C448.012 5.83306 448.741 4.16643 449.991 2.81229C451.553 1.24982 453.22 0.520668 455.095 0.624833C456.866 0.728997 458.428 1.45815 459.886 2.81229L473.949 16.8745L488.115 2.49979Z" fill="#1AA0E1"></path>
    <path d="M26.3536 0.9375C33.6451 0.9375 39.6867 3.43745 44.6866 8.54151C45.9365 9.89565 46.4574 11.5623 46.3532 13.3331C46.249 15.3122 45.5199 16.7705 44.1657 17.9163C42.8116 19.1663 41.2491 19.6871 39.1658 19.8954C37.0826 19.9996 35.5201 19.2705 34.166 17.9163C31.9785 15.833 29.1661 14.8955 26.1453 14.8955C24.4787 14.8955 22.9162 15.208 21.4579 15.833C19.9996 16.5622 18.6454 17.3955 17.6038 18.5413C16.5622 19.5829 15.5205 20.9371 14.8955 22.3954C14.2705 23.8537 13.958 25.312 13.958 26.9786C13.958 28.6453 14.2705 30.2077 14.8955 31.666C15.5205 33.1243 16.458 34.4785 17.6038 35.5201C18.8538 36.5618 19.9996 37.6034 21.4579 38.2284C22.9162 38.8534 24.4787 39.1659 26.0411 39.0617C29.1661 39.0617 31.8743 38.1242 34.0618 36.1451C35.4159 34.6868 37.0826 33.9576 39.0617 33.9576C41.145 33.9576 42.7074 34.6868 44.0616 36.1451C44.6866 36.7701 45.3116 37.3951 45.624 38.2284C45.9365 39.0617 46.249 39.7909 46.249 40.7283C46.249 41.5616 46.1449 42.395 45.9365 43.2283C45.7282 44.0616 45.2074 44.7907 44.5824 45.4157C42.0825 47.9157 39.27 49.8948 36.2492 51.1448C33.2285 52.4989 29.8952 53.1239 26.2495 53.1239C22.6037 53.1239 19.2704 52.3948 16.1455 50.9365C13.0206 49.4782 10.2081 47.7074 7.81234 45.2074C5.41655 42.8116 3.54159 39.9992 2.08329 36.8743C0.729152 33.8535 0 30.4161 0 26.9786C0 23.5412 0.729151 20.2079 2.18745 17.083C3.64576 13.9581 5.41655 11.1456 8.02067 8.74984C10.4164 6.35405 13.2289 4.47909 16.3538 3.02079C19.4788 1.66665 22.7079 0.9375 26.3536 0.9375Z" fill="black"></path>
    <path d="M83.2273 1.0415C86.4564 1.35399 89.4771 2.39564 92.3937 3.85394C95.3103 5.41641 97.7061 7.39553 99.7894 9.68715C101.873 11.9788 103.435 14.687 104.581 17.7078C105.831 20.7286 106.352 23.8535 106.352 27.1868V46.2489C106.352 48.228 105.623 49.8946 104.164 51.2488C102.706 52.6029 101.144 53.3321 99.3728 53.3321C96.8728 53.3321 94.7895 52.0821 93.3312 49.7905C93.0187 49.8946 92.6021 50.103 92.3937 50.3113C92.1854 50.4155 91.7687 50.6238 91.5604 50.8321C89.8938 51.6654 88.0188 52.2904 86.248 52.6029C84.2689 53.1237 82.3939 53.2279 80.3106 53.2279C74.8941 53.2279 69.9984 51.7696 65.8318 48.853C61.561 45.9364 58.4361 42.1865 56.2487 37.4991C55.5195 35.8324 54.8945 34.0616 54.582 32.395C54.2695 30.7284 53.957 28.8534 53.957 26.9785C53.957 25.2077 54.1654 23.3327 54.582 21.5619C54.8945 19.8953 55.5195 18.1245 56.2487 16.4578C58.3319 11.7704 61.561 8.02052 65.8318 5.10391C70.1025 2.18731 74.8941 0.729004 80.3106 0.729004H81.8731C82.2898 0.937333 82.7064 1.0415 83.2273 1.0415ZM79.9982 39.2699C81.6648 39.2699 83.2273 39.0615 84.6856 38.3324C86.1439 37.7074 87.498 36.8741 88.5396 35.8324C89.5813 34.7908 90.5188 33.4367 91.2479 31.9784C91.8729 30.52 92.1854 28.9576 92.1854 27.1868C92.1854 25.6243 91.8729 24.0619 91.2479 22.6035C90.6229 21.1452 89.6855 19.7911 88.5396 18.7495C87.498 17.7078 86.1439 16.6662 84.6856 16.0412C83.2273 15.4162 81.6648 15.1037 80.1023 15.1037C78.5399 15.1037 76.9774 15.4162 75.5191 16.0412C74.0608 16.6662 72.7066 17.6037 71.665 18.7495C70.6234 19.8953 69.5817 21.1452 68.9567 22.6035C68.3317 24.0619 68.0192 25.6243 68.0192 27.1868C68.0192 28.8534 68.3317 30.4159 68.9567 31.8742C69.6859 33.3325 70.5192 34.6866 71.665 35.7283C72.7066 36.7699 74.0608 37.7074 75.5191 38.4366C76.9774 38.8532 78.4357 39.2699 79.9982 39.2699Z" fill="black"></path>
    <path d="M120.726 53.9571C118.747 53.9571 117.081 53.3321 115.727 51.9779C114.372 50.6238 113.643 48.9572 113.539 46.7697V26.4576C113.643 22.916 114.372 19.5828 115.831 16.4578C117.289 13.3329 119.164 10.6246 121.664 8.22884C124.06 5.93722 126.872 4.16643 130.101 2.70812C133.33 1.35398 136.768 0.624833 140.414 0.416504C142.497 0.416504 144.163 1.14566 145.518 2.49979C146.872 3.9581 147.601 5.62473 147.809 7.60385C147.809 9.58298 147.08 11.2496 145.726 12.7079C144.268 14.0621 142.601 14.7912 140.518 14.8954C138.851 14.8954 137.289 15.2079 135.83 15.8328C134.372 16.4578 133.018 17.2912 131.976 18.3328C130.935 19.3744 129.997 20.7286 129.268 22.1869C128.539 23.6452 128.33 25.3118 128.33 27.1868V47.2905C128.226 49.2697 127.497 50.8321 126.143 51.9779C124.58 53.4362 122.81 53.9571 120.726 53.9571Z" fill="black"></path>
  </g>
</svg>
